<?xml version="1.0" encoding="UTF-8" standalone="no"?>
<!-- Created with Inkscape (http://www.inkscape.org/) -->

<svg
   xmlns:osb="http://www.openswatchbook.org/uri/2009/osb"
   xmlns:dc="http://purl.org/dc/elements/1.1/"
   xmlns:cc="http://creativecommons.org/ns#"
   xmlns:rdf="http://www.w3.org/1999/02/22-rdf-syntax-ns#"
   xmlns:svg="http://www.w3.org/2000/svg"
   xmlns="http://www.w3.org/2000/svg"
   xmlns:sodipodi="http://sodipodi.sourceforge.net/DTD/sodipodi-0.dtd"
   xmlns:inkscape="http://www.inkscape.org/namespaces/inkscape"
   width="1024"
   height="1024"
   viewBox="0 0 270.93333 270.93333"
   version="1.1"
   id="svg8"
   inkscape:version="0.92.4 (5da689c313, 2019-01-14)"
   sodipodi:docname="splash_vector.svg">
  <defs
     id="defs2">
    <linearGradient
       id="linearGradient2279"
       osb:paint="solid">
      <stop
         style="stop-color:#ff9300;stop-opacity:1;"
         offset="0"
         id="stop2277" />
    </linearGradient>
    <inkscape:path-effect
       effect="bspline"
       id="path-effect994"
       is_visible="true"
       weight="33.333333"
       steps="2"
       helper_size="0"
       apply_no_weight="true"
       apply_with_weight="true"
       only_selected="false" />
    <inkscape:path-effect
       effect="spiro"
       id="path-effect990"
       is_visible="true" />
    <inkscape:path-effect
       effect="powerstroke"
       id="path-effect986"
       is_visible="true"
       offset_points="0,0.13229166"
       sort_points="true"
       interpolator_type="CubicBezierJohan"
       interpolator_beta="0.2"
       start_linecap_type="zerowidth"
       linejoin_type="extrp_arc"
       miter_limit="4"
       end_linecap_type="zerowidth" />
    <inkscape:path-effect
       effect="powerstroke"
       id="path-effect982"
       is_visible="true"
       offset_points="0,0.13229166"
       sort_points="true"
       interpolator_type="CubicBezierJohan"
       interpolator_beta="0.2"
       start_linecap_type="zerowidth"
       linejoin_type="extrp_arc"
       miter_limit="4"
       end_linecap_type="zerowidth" />
    <inkscape:path-effect
       effect="powerstroke"
       id="path-effect978"
       is_visible="true"
       offset_points="0,0.13229166"
       sort_points="true"
       interpolator_type="CubicBezierJohan"
       interpolator_beta="0.2"
       start_linecap_type="zerowidth"
       linejoin_type="extrp_arc"
       miter_limit="4"
       end_linecap_type="zerowidth" />
    <inkscape:path-effect
       effect="powerstroke"
       id="path-effect974"
       is_visible="true"
       offset_points="0,0.13229166"
       sort_points="true"
       interpolator_type="CubicBezierJohan"
       interpolator_beta="0.2"
       start_linecap_type="zerowidth"
       linejoin_type="extrp_arc"
       miter_limit="4"
       end_linecap_type="zerowidth" />
    <inkscape:path-effect
       effect="powerstroke"
       id="path-effect970"
       is_visible="true"
       offset_points="0,0.13229166"
       sort_points="true"
       interpolator_type="CubicBezierJohan"
       interpolator_beta="0.2"
       start_linecap_type="zerowidth"
       linejoin_type="extrp_arc"
       miter_limit="4"
       end_linecap_type="zerowidth" />
    <inkscape:path-effect
       effect="powerstroke"
       id="path-effect966"
       is_visible="true"
       offset_points="0,0.13229166"
       sort_points="true"
       interpolator_type="CubicBezierJohan"
       interpolator_beta="0.2"
       start_linecap_type="zerowidth"
       linejoin_type="extrp_arc"
       miter_limit="4"
       end_linecap_type="zerowidth" />
  </defs>
  <sodipodi:namedview
     id="base"
     pagecolor="#ffffff"
     bordercolor="#666666"
     borderopacity="1.0"
     inkscape:pageopacity="0.0"
     inkscape:pageshadow="2"
     inkscape:zoom="0.5"
     inkscape:cx="346.4964"
     inkscape:cy="495.12654"
     inkscape:document-units="mm"
     inkscape:current-layer="layer5"
     showgrid="false"
     units="px"
     showguides="true"
     inkscape:guide-bbox="true"
     inkscape:window-width="1600"
     inkscape:window-height="837"
     inkscape:window-x="-8"
     inkscape:window-y="-8"
     inkscape:window-maximized="1" />
  <metadata
     id="metadata5">
    <rdf:RDF>
      <cc:Work
         rdf:about="">
        <dc:format>image/svg+xml</dc:format>
        <dc:type
           rdf:resource="http://purl.org/dc/dcmitype/StillImage" />
        <dc:title />
      </cc:Work>
    </rdf:RDF>
  </metadata>
  <g
     inkscape:groupmode="layer"
     id="layer5"
     inkscape:label="azul"
     style="display:inline">
    <g
       id="g951"
       transform="matrix(0.69273908,0,0,0.69273908,43.39226,0.77024756)">
      <g
         id="g998">
        <path
           id="path943"
           style="fill:#3c4b90;fill-opacity:1;stroke:none;stroke-width:0.26458332px;stroke-linecap:butt;stroke-linejoin:miter;stroke-opacity:1"
           d="M 207.19494,160.09183 V 67.960114 L 236.29911,50.195235 V 159.80835 c 0,85.42262 -80.02955,102.79028 -107.45252,102.75154 C 101.67273,262.5215 21.544639,245.23097 21.544639,159.80835 V 50.195235 l 29.104166,17.764879 c 0,0 2e-6,62.424496 0,92.131716 0.377978,22.80915 16.08152,73.77711 77.191775,73.77711 62.06544,0 77.77784,-50.52929 79.35436,-73.77711 z"
           inkscape:connector-curvature="0"
           sodipodi:nodetypes="cccssscccsc" />
      </g>
    </g>
  </g>
  <g
     inkscape:groupmode="layer"
     id="layer7"
     inkscape:label="Rojo"
     style="display:inline">
    <path
       style="fill:#d9393b;fill-opacity:1;stroke:none;stroke-width:0.1832872px;stroke-linecap:butt;stroke-linejoin:miter;stroke-opacity:1"
       d="m 175.54261,109.82612 c 0,-13.375783 -0.27493,-56.085893 -0.27493,-56.085893 0,0 -25.40117,10.14827 -25.62883,27.91028 0,0 -0.0186,19.527213 0.013,28.542183 0,8.37507 -9.76262,16.81924 -17.96571,16.81812 -8.2007,-0.001 -17.95592,-8.44305 -17.95592,-16.81812 0.0316,-9.01497 0.0129,-28.542183 0.0129,-28.542183 -0.22764,-17.76201 -25.628794,-27.91028 -25.628794,-27.91028 0,0 -0.274931,42.71011 -0.274931,56.085893 0,38.11374 37.070605,41.93696 44.209525,41.93696 7.25487,0 43.49368,-3.82322 43.49368,-41.93696 z"
       id="path1038"
       inkscape:connector-curvature="0"
       sodipodi:nodetypes="scscacscsss" />
  </g>
  <g
     inkscape:groupmode="layer"
     id="layer2"
     inkscape:label="Circulo"
     style="display:inline">
    <circle
       style="fill:#d9393b;fill-opacity:1;fill-rule:evenodd;stroke:none;stroke-width:0.18357584;stroke-miterlimit:4;stroke-dasharray:none;stroke-opacity:1"
       id="path836"
       cx="132.32036"
       cy="28.766569"
       r="22.680635" />
  </g>
  <g
     inkscape:groupmode="layer"
     id="layer3"
     inkscape:label="Blanco"
     style="display:inline">
    <path
       style="fill:#ffffff;stroke:none;stroke-width:0.1832872px;stroke-linecap:butt;stroke-linejoin:miter;stroke-opacity:1"
       d="m 78.478666,47.848877 9.635674,5.89135 c 0,0 -0.274931,39.01537 -0.274931,55.676333 0,0 -3.31865,39.24461 44.122291,42.36731 46.30727,-3.0527 43.58091,-41.95775 43.58091,-41.95775 l -0.27493,-56.085893 11.65661,-5.89135 v 64.500273 c 0,0 -2.80975,50.4146 -55.04935,50.4146 -50.24107,0 -54.074904,-48.34453 -53.486278,-53.34719 0,-19.509273 0.09,-61.567683 0.09,-61.567683 z"
       id="path847"
       inkscape:connector-curvature="0"
       sodipodi:nodetypes="ccccccccccc" />
  </g>
  <g
     inkscape:groupmode="layer"
     id="layer6"
     inkscape:label="Cecep"
     style="display:inline">
    <path
       style="display:inline;fill:#d7383a;fill-opacity:1;stroke:none;stroke-width:0.26458332px;stroke-linecap:butt;stroke-linejoin:miter;stroke-opacity:1"
       d="m 68.515123,210.47601 4.88339,-7.69997 c 0,0 -7.31195,-6.57396 -16.52506,-6.58753 -8.78873,-0.0129 -23.54791,6.88098 -23.41562,22.09271 0.1772,20.37601 17.06563,23.94479 21.43125,23.94479 4.36563,0 11.91513,0.12608 19.71146,-7.14375 l -5.55625,-7.40833 c -2.11667,1.32291 -4.18492,5.02708 -10.71563,5.02708 -6.64683,0.46373 -14.34989,-4.39767 -14.41979,-13.49375 -0.0763,-9.93228 9.525,-13.62604 13.49375,-13.49375 3.96875,0.13229 8.33438,2.11666 11.1125,4.7625 z"
       id="path850"
       inkscape:connector-curvature="0"
       sodipodi:nodetypes="ccssscccssc" />
    <path
       style="display:inline;fill:#d7383a;fill-opacity:1;stroke:none;stroke-width:0.26458332px;stroke-linecap:butt;stroke-linejoin:miter;stroke-opacity:1"
       d="m 81.823283,241.57643 h 28.624567 v -9.26089 H 92.487333 v -8.60608 h 13.657477 v -9.0738 H 92.393793 v -7.85773 h 17.492787 v -9.54152 l -28.057447,-0.003 z"
       id="path852"
       inkscape:connector-curvature="0"
       sodipodi:nodetypes="ccccccccccccc" />
    <path
       style="display:inline;fill:#d7383a;fill-opacity:1;stroke:none;stroke-width:0.26458332px;stroke-linecap:butt;stroke-linejoin:miter;stroke-opacity:1"
       d="m 163.34348,241.37878 h 28.62457 v -9.26089 h -17.96052 v -8.60608 h 13.65748 v -9.0738 h -13.75102 v -7.85773 h 17.49279 v -9.54152 l -28.05745,-0.003 z"
       id="path852-7"
       inkscape:connector-curvature="0"
       sodipodi:nodetypes="ccccccccccccc" />
    <path
       style="display:inline;fill:#d7383a;fill-opacity:1;stroke:none;stroke-width:0.26458332px;stroke-linecap:butt;stroke-linejoin:miter;stroke-opacity:1"
       d="m 151.24158,210.21138 4.88339,-7.69997 c 0,0 -7.31195,-6.57396 -16.52505,-6.58753 -8.78875,-0.0129 -23.54793,6.88098 -23.41564,22.09271 0.17721,20.37601 17.06563,23.94479 21.43126,23.94479 4.36563,0 11.91513,0.12608 19.71146,-7.14375 l -5.55625,-7.40833 c -2.11667,1.32291 -4.18492,5.02708 -10.71562,5.02708 -6.64684,0.46373 -14.3499,-4.39767 -14.41981,-13.49375 -0.0763,-9.93228 9.52501,-13.62604 13.49376,-13.49375 3.96875,0.13229 8.33438,2.11666 11.1125,4.7625 z"
       id="path850-2"
       inkscape:connector-curvature="0"
       sodipodi:nodetypes="ccssscccssc" />
    <path
       style="fill:#d7383a;fill-opacity:1;stroke:none;stroke-width:0.99999994px;stroke-linecap:butt;stroke-linejoin:miter;stroke-opacity:1"
       d="m 824.00977,747.86914 c -0.43303,-0.002 -0.66407,0.006 -0.66407,0.006 H 757.31055 V 913.6935 l 39.59961,-0.002 v -53.0333 h 30.54687 c 0,0 55.01172,2.04463 55.01172,-55.86132 0,-54.9995 -51.96353,-56.90451 -58.45898,-56.92774 z m -26.88672,32.81836 h 28.77539 c 0,0 15.80552,4.28382 15.55078,24.35742 -0.25497,20.07364 -18.35547,22.75 -18.35547,22.75 H 797.0918 Z"
       transform="scale(0.26458333)"
       id="path908"
       inkscape:connector-curvature="0" />
  </g>
  <g
     inkscape:groupmode="layer"
     id="layer4"
     inkscape:label="aprender"
     style="display:inline">
    <text
       xml:space="preserve"
       style="font-style:normal;font-variant:normal;font-weight:bold;font-stretch:normal;font-size:14.0297451px;line-height:1.25;font-family:sans-serif;-inkscape-font-specification:'sans-serif, Bold';font-variant-ligatures:normal;font-variant-caps:normal;font-variant-numeric:normal;font-feature-settings:normal;text-align:start;letter-spacing:0px;word-spacing:0px;writing-mode:lr-tb;text-anchor:start;fill:#999999;fill-opacity:1;stroke:none;stroke-width:0.21921477"
       x="32.581669"
       y="262.33527"
       id="text2583"
       transform="scale(1.0049097,0.99511428)"><tspan
         sodipodi:role="line"
         id="tspan2581"
         x="32.581669"
         y="262.33527"
         style="font-style:normal;font-variant:normal;font-weight:bold;font-stretch:normal;font-size:14.0297451px;font-family:sans-serif;-inkscape-font-specification:'sans-serif, Bold';font-variant-ligatures:normal;font-variant-caps:normal;font-variant-numeric:normal;font-feature-settings:normal;text-align:start;writing-mode:lr-tb;text-anchor:start;fill:#999999;fill-opacity:1;stroke-width:0.21921477">APRENDER PARA CRECER</tspan></text>
  </g>
</svg>
